<svg width="64" height="64" viewBox="0 0 64 64" fill="none" xmlns="http://www.w3.org/2000/svg">
<mask id="mask0_46_164" style="mask-type:alpha" maskUnits="userSpaceOnUse" x="0" y="0" width="64" height="64">
<rect width="64" height="64" fill="#D9D9D9"/>
</mask>
<g mask="url(#mask0_46_164)">
<path d="M13.3333 56C11.8667 56 10.6111 55.4778 9.56667 54.4333C8.52222 53.3889 8 52.1333 8 50.6667V34.6667H13.3333V50.6667H29.3333V56H13.3333ZM34.6667 56V50.6667H50.6667V34.6667H56V50.6667C56 52.1333 55.4778 53.3889 54.4333 54.4333C53.3889 55.4778 52.1333 56 50.6667 56H34.6667ZM16 45.3333L24 34.6667L30 42.6667L38 32L48 45.3333H16ZM8 29.3333V13.3333C8 11.8667 8.52222 10.6111 9.56667 9.56667C10.6111 8.52222 11.8667 8 13.3333 8H29.3333V13.3333H13.3333V29.3333H8ZM50.6667 29.3333V13.3333H34.6667V8H50.6667C52.1333 8 53.3889 8.52222 54.4333 9.56667C55.4778 10.6111 56 11.8667 56 13.3333V29.3333H50.6667ZM41.3333 26.6667C40.1778 26.6667 39.2222 26.2889 38.4667 25.5333C37.7111 24.7778 37.3333 23.8222 37.3333 22.6667C37.3333 21.5111 37.7111 20.5556 38.4667 19.8C39.2222 19.0444 40.1778 18.6667 41.3333 18.6667C42.4889 18.6667 43.4444 19.0444 44.2 19.8C44.9556 20.5556 45.3333 21.5111 45.3333 22.6667C45.3333 23.8222 44.9556 24.7778 44.2 25.5333C43.4444 26.2889 42.4889 26.6667 41.3333 26.6667Z" fill="white"/>
</g>
</svg>
