<svg width="250" height="307" viewBox="0 0 250 307" fill="none" xmlns="http://www.w3.org/2000/svg">
<path d="M32.832 240.2C33.6427 240.669 34.24 241.331 34.624 242.184C35.0507 242.995 35.264 243.891 35.264 244.872C35.264 245.725 35.0933 246.579 34.752 247.432C34.4107 248.285 33.9627 248.989 33.408 249.544C27.904 249.629 23.3173 249.843 19.648 250.184C18.9227 252.787 18.24 255.688 17.6 258.888C21.8667 258.547 25.472 258.035 28.416 257.352C29.2693 257.864 29.9093 258.547 30.336 259.4C30.8053 260.211 31.04 261.107 31.04 262.088C31.04 262.984 30.848 263.837 30.464 264.648C30.1227 265.416 29.632 266.035 28.992 266.504C28.1813 266.589 27.392 266.653 26.624 266.696C25.856 266.739 25.1093 266.781 24.384 266.824L16.128 267.4L14.976 273.16L14.336 276.232C16.9387 275.976 19.2853 275.635 21.376 275.208C23.5093 274.739 25.7493 274.099 28.096 273.288C29.2907 273.843 30.208 274.632 30.848 275.656C31.5307 276.637 31.872 277.725 31.872 278.92C31.872 280.627 31.2107 282.141 29.888 283.464C27.2427 283.976 24.2773 284.36 20.992 284.616C17.7067 284.872 14.656 285 11.84 285C11.072 285 10.0693 284.616 8.832 283.848C7.59467 283.08 6.48533 282.184 5.504 281.16C4.56533 280.136 4.096 279.261 4.096 278.536C4.096 277.896 4.58667 275.421 5.568 271.112C6.29333 267.955 6.99733 264.669 7.68 261.256C8.14933 258.909 8.384 257.736 8.384 257.736C9.06667 254.408 9.51467 251.997 9.728 250.504L7.04 250.696C6.22933 250.269 5.568 249.651 5.056 248.84C4.58667 247.987 4.352 247.069 4.352 246.088C4.352 244.381 5.01333 242.867 6.336 241.544C12.1813 241.459 17.2587 241.331 21.568 241.16C25.92 240.989 29.6747 240.669 32.832 240.2ZM66.351 278.792C65.455 279.688 64.0257 280.648 62.063 281.672C60.143 282.696 58.031 283.571 55.727 284.296C53.4657 284.979 51.3537 285.32 49.391 285.32C47.8977 285.32 46.127 284.637 44.079 283.272C42.031 281.864 40.2603 280.2 38.767 278.28C37.3163 276.36 36.591 274.653 36.591 273.16C36.6337 268.595 37.4017 263.688 38.895 258.44C40.431 253.192 42.7137 248.733 45.743 245.064C48.815 241.395 52.5057 239.56 56.815 239.56C59.0763 239.56 61.167 240.2 63.087 241.48C65.0497 242.76 66.5857 244.339 67.695 246.216C68.8043 248.093 69.359 249.864 69.359 251.528C69.4017 253.277 68.8043 254.621 67.567 255.56C66.3297 256.456 64.7723 256.904 62.895 256.904C61.5297 256.904 60.1643 256.648 58.799 256.136C58.8417 255.368 58.863 254.28 58.863 252.872C58.863 251.293 58.735 250.12 58.479 249.352C58.223 248.584 57.7323 248.2 57.007 248.2C55.5563 248.2 54.063 249.693 52.527 252.68C51.0337 255.667 49.7537 259.336 48.687 263.688C47.663 268.04 47.1083 272.029 47.023 275.656C49.839 275.144 52.4203 274.312 54.767 273.16C57.1563 271.965 59.247 270.6 61.039 269.064C62.959 269.533 64.431 270.408 65.455 271.688C66.5217 272.925 67.055 274.312 67.055 275.848C67.055 276.787 66.8203 277.768 66.351 278.792ZM88.359 239.56C91.4737 239.56 94.4177 240.307 97.191 241.8C100.007 243.293 102.247 245.277 103.911 247.752C105.618 250.184 106.471 252.723 106.471 255.368C106.471 259.507 105.362 263.944 103.143 268.68C100.924 273.373 98.1083 277.32 94.695 280.52C91.3243 283.72 87.9963 285.32 84.711 285.32C83.0043 285.32 81.0843 284.616 78.951 283.208C76.8603 281.757 75.0683 280.051 73.575 278.088C72.0817 276.083 71.335 274.312 71.335 272.776C71.335 270.344 72.0603 266.163 73.511 260.232C74.9617 254.259 76.3057 249.864 77.543 247.048C78.951 246.621 80.2737 246.408 81.511 246.408C82.3643 246.408 83.047 246.493 83.559 246.664C83.4737 245.085 83.8577 243.635 84.711 242.312C85.5643 240.989 86.7803 240.072 88.359 239.56ZM81.767 276.552C85.863 275.059 89.2977 272.2 92.071 267.976C94.8443 263.709 96.807 259.037 97.959 253.96C96.7643 253.107 95.207 252.403 93.287 251.848C91.4097 251.293 89.383 250.995 87.207 250.952C87.2923 251.379 87.3777 252.019 87.463 252.872C83.5377 260.211 81.639 268.104 81.767 276.552Z" fill="#90FF1A"/>
<path d="M127.546 256.136C127.887 254.003 128.058 252.296 128.058 251.016C128.058 250.12 127.972 249.416 127.802 248.904C127.674 248.392 127.503 248.136 127.29 248.136C126.65 248.136 125.903 248.669 125.05 249.736C124.239 250.803 123.535 252.083 122.938 253.576C122.383 255.027 122.106 256.328 122.106 257.48C122.106 258.931 122.81 260.403 124.218 261.896C125.668 263.347 127.78 265.139 130.554 267.272C132.644 268.808 134.202 270.088 135.226 271.112C136.25 272.093 136.783 272.989 136.826 273.8C136.868 275.592 135.93 277.363 134.01 279.112C132.09 280.819 129.679 282.227 126.778 283.336C123.919 284.445 121.252 285 118.778 285C116.858 285 114.874 284.531 112.826 283.592C110.778 282.611 109.071 281.48 107.706 280.2C106.34 278.877 105.636 277.725 105.593 276.744C105.508 274.867 106.127 273.352 107.45 272.2C108.772 271.005 110.543 270.408 112.762 270.408C113.871 270.408 115.002 270.557 116.154 270.856C116.666 273.672 117.114 275.699 117.498 276.936C120.015 276.296 122.746 275.187 125.69 273.608C116.175 266.397 111.418 260.765 111.418 256.712C111.418 254.749 112.143 252.403 113.594 249.672C115.044 246.899 116.964 244.531 119.354 242.568C121.743 240.563 124.26 239.56 126.906 239.56C128.868 239.56 130.767 240.221 132.602 241.544C134.436 242.867 135.93 244.488 137.082 246.408C138.234 248.328 138.81 250.12 138.81 251.784C138.81 253.405 138.148 254.707 136.826 255.688C135.546 256.627 133.946 257.096 132.026 257.096C130.532 257.096 129.039 256.776 127.546 256.136ZM151.028 285C150.046 285 148.873 284.637 147.508 283.912C146.185 283.187 145.012 282.333 143.988 281.352C143.006 280.371 142.516 279.56 142.516 278.92C142.516 277.811 143.561 272.157 145.652 261.96C145.908 260.765 146.313 258.739 146.868 255.88C147.465 252.979 147.87 250.888 148.084 249.608L145.716 249.992C144.393 248.755 143.732 247.197 143.732 245.32C143.732 243.997 144.094 242.632 144.82 241.224C148.276 240.328 151.774 239.88 155.316 239.88C159.07 239.88 162.548 240.371 165.748 241.352C168.99 242.333 171.614 243.848 173.62 245.896C175.625 247.901 176.628 250.419 176.628 253.448C176.628 256.136 175.732 258.696 173.94 261.128C172.19 263.517 169.63 265.501 166.26 267.08C162.889 268.659 158.921 269.619 154.356 269.96C154.057 272.008 153.822 273.864 153.652 275.528C153.268 278.771 152.905 281.16 152.564 282.696C152.222 284.232 151.71 285 151.028 285ZM155.316 262.024C159.028 261.299 161.886 260.189 163.892 258.696C165.94 257.16 166.964 255.453 166.964 253.576C166.964 252.296 166.324 251.229 165.044 250.376C163.806 249.48 162.121 249.032 159.988 249.032C159.22 249.032 158.388 249.096 157.492 249.224L156.468 255.24C155.87 258.611 155.486 260.872 155.316 262.024ZM194.422 239.56C197.536 239.56 200.48 240.307 203.254 241.8C206.07 243.293 208.31 245.277 209.974 247.752C211.68 250.184 212.534 252.723 212.534 255.368C212.534 259.507 211.424 263.944 209.206 268.68C206.987 273.373 204.171 277.32 200.758 280.52C197.387 283.72 194.059 285.32 190.774 285.32C189.067 285.32 187.147 284.616 185.014 283.208C182.923 281.757 181.131 280.051 179.638 278.088C178.144 276.083 177.398 274.312 177.398 272.776C177.398 270.344 178.123 266.163 179.574 260.232C181.024 254.259 182.368 249.864 183.606 247.048C185.014 246.621 186.336 246.408 187.574 246.408C188.427 246.408 189.11 246.493 189.622 246.664C189.536 245.085 189.92 243.635 190.774 242.312C191.627 240.989 192.843 240.072 194.422 239.56ZM187.83 276.552C191.926 275.059 195.36 272.2 198.134 267.976C200.907 263.709 202.87 259.037 204.022 253.96C202.827 253.107 201.27 252.403 199.35 251.848C197.472 251.293 195.446 250.995 193.27 250.952C193.355 251.379 193.44 252.019 193.526 252.872C189.6 260.211 187.702 268.104 187.83 276.552ZM247.11 240.2C247.92 240.669 248.518 241.331 248.902 242.184C249.328 242.995 249.542 243.891 249.542 244.872C249.542 245.725 249.371 246.579 249.03 247.432C248.688 248.285 248.24 248.989 247.686 249.544C247.046 249.501 246.086 249.48 244.806 249.48C243.995 249.48 242.523 249.523 240.39 249.608L236.998 249.672C237.211 248.435 236.699 251.315 235.462 258.312L234.182 265.608C233.755 268.125 233.307 271.432 232.838 275.528C232.411 279.027 232.027 281.48 231.686 282.888C231.387 284.296 230.896 285 230.214 285C229.232 285 228.059 284.659 226.694 283.976C225.371 283.251 224.198 282.397 223.174 281.416C222.192 280.435 221.702 279.624 221.702 278.984C221.659 278.003 222.171 275.101 223.238 270.28C224.048 266.227 224.624 263.219 224.966 261.256C224.966 261.341 225.307 259.571 225.99 255.944C226.587 252.701 226.95 250.717 227.078 249.992L217.094 251.208C216.283 250.781 215.622 250.163 215.11 249.352C214.64 248.499 214.406 247.581 214.406 246.6C214.406 244.893 215.067 243.379 216.39 242.056C218.822 241.715 221.851 241.501 225.478 241.416C229.147 241.288 231.323 241.203 232.006 241.16C236.486 241.032 239.75 240.925 241.798 240.84C243.888 240.712 245.659 240.499 247.11 240.2Z" fill="#004741"/>
<path d="M38.5228 78.2559C44.2061 80.8534 48.7405 83.0013 53.3415 85.0048C60.7231 88.2128 65.5184 94.057 69.9473 100.49C78.0338 112.228 86.4033 123.778 94.6562 135.405C95.0059 135.216 95.35 135.028 95.6996 134.839C94.8172 132.885 94.0957 130.843 93.0356 128.995C87.8352 119.937 82.5404 110.94 77.2901 101.916C72.345 93.4187 70.3136 84.1224 69.6976 73.9047C71.5457 74.2321 73.2219 74.5319 75.5806 74.9537C75.1033 73.5439 74.8258 72.4894 74.3929 71.5015C71.3681 64.5861 71.246 57.7984 75.1644 51.1383C76.4298 48.9849 77.6342 46.948 76.7739 44.0953C76.3077 42.5413 77.1402 40.5876 77.4177 38.8172C78.1559 34.1218 78.9051 29.4265 79.6433 24.7644C83.0066 26.94 87.0193 29.1712 90.6102 31.9462C95.7884 35.9533 100.789 40.2158 105.601 44.6614C107.294 46.221 108.198 48.6297 109.714 51.044C114.509 47.614 117.722 43.1185 119.881 37.857C122.251 32.0849 124.449 26.2463 126.697 20.4187C129.355 13.52 131.975 6.61013 134.5 0C142.853 9.15206 151.8 18.9535 161.19 29.2433C162.445 26.5127 163.277 24.7033 164.115 22.8829C164.476 23.0494 164.831 23.1105 164.859 23.2437C167.323 33.8443 174.044 43.2794 173.95 54.5017C173.895 60.5346 173.817 67.0393 171.636 72.4783C166.097 86.298 157.45 98.4582 148.392 111.268C149.125 106.017 149.868 101.672 150.318 97.2982C151.744 83.4009 149.874 70.0474 143.885 57.2822C140.844 50.7998 138.341 44.0675 135.205 36.4972C135.205 38.8782 134.905 40.4655 135.255 41.8919C137.514 51.0884 139.551 60.3625 142.348 69.398C147.881 87.2415 146.81 105.135 143.613 123.278C138.23 109.575 127.668 100.379 117.095 91.1821C116.807 91.3708 116.518 91.5595 116.229 91.7426C116.856 92.7472 117.384 93.8294 118.127 94.7341C131.242 110.58 133.601 128.306 127.246 147.482C124.96 154.375 122.346 161.157 119.598 168.766C115.685 162.178 112.833 155.752 106.739 152.027C106.467 152.227 106.2 152.427 105.928 152.627C107.943 155.33 109.958 158.033 112.372 161.268C108.037 159.415 104.391 157.5 100.523 156.273C91.4982 153.404 82.2019 151.323 73.344 148.031C66.6617 145.545 60.0405 142.337 54.2073 138.274C44.7778 131.698 39.5163 121.924 38.6838 110.557C37.9123 99.9622 38.5228 89.2784 38.5228 78.2559Z" fill="#4BCC3C"/>
<path d="M124.083 175.099C128.884 172.141 133.473 169.36 138.025 166.508C145.545 161.79 152.899 156.789 160.58 152.36C165.841 149.325 171.453 146.827 177.086 144.529C180.538 143.125 182.769 141.238 184.268 137.675C190.19 123.594 201.484 116.374 216.131 113.776C216.719 113.671 217.324 113.676 217.923 113.676C218.14 113.676 218.362 113.821 219 114.048C218.168 115.031 217.268 115.797 216.736 116.762C214.155 121.463 211.374 126.086 209.221 130.987C206.329 137.558 204.159 144.44 201.295 151.023C195.368 164.665 185.3 174.144 171.514 179.711C170.753 180.016 170.037 180.449 169.099 180.927C169.91 182.003 170.603 182.919 171.275 183.807C160.991 195.706 137.769 191.616 124.083 175.099Z" fill="#4BCC3C"/>
<path d="M192.987 66.4787C196.533 72.9279 200.096 79.3493 203.604 85.804C208.216 94.279 206.906 102.621 200.657 109.142C192.887 117.24 184.329 124.738 175.354 131.481C165.292 139.035 154.203 145.201 143.902 152.455C137.17 157.195 131.048 162.8 124.571 168.084C124.993 166.885 125.27 165.503 125.92 164.326C132.536 152.222 138.635 139.801 147.87 129.322C155.496 120.67 161.357 110.918 165.126 100.012C167.74 92.4586 171.847 85.9816 177.719 80.587C183.002 75.7307 188.258 70.8466 192.987 66.4787Z" fill="#4BCC3C"/>
<path d="M117.944 170.559C103.331 183.674 87.4912 186.943 69.9141 182.303C60.4956 179.817 52.2649 175.055 45.0221 168.433C39.6607 163.533 33.8831 159.093 28 154.203C40.0103 150.318 51.6044 147.51 62.8433 155.857C64.0532 156.756 66.2122 156.8 67.8606 156.623C81.9467 155.08 95.6942 155.801 108.326 163C111.667 164.898 114.453 167.773 117.944 170.559Z" fill="#4BCC3C"/>
<path d="M48.9515 229.601C54.2352 228.752 59.4911 227.63 64.8081 227.125C69.9086 226.637 75.1146 227.125 80.1873 226.498C82.5905 226.199 84.6773 226.032 87.0971 226.498C88.4292 226.754 90.183 224.811 91.9979 223.712C92.2976 223.984 92.9081 224.378 93.3077 224.928C95.2613 227.608 96.9929 227.009 98.7134 224.683C99.8068 223.213 100.967 221.786 102.21 220.199C102.887 220.915 103.326 221.165 103.32 221.403C103.203 226.038 105.94 226.287 109.608 225.932C113.177 225.588 116.807 225.843 120.403 225.882C124.987 225.932 125.925 225.272 126.469 220.732C127.801 209.654 127.363 198.687 123.95 187.959C123.778 187.409 123.678 186.837 124.249 185.905C125.637 188.275 127.502 190.495 128.329 193.048C130.915 201.007 133.335 209.038 135.405 217.146C137.575 225.677 137.497 225.949 146.25 225.965C160.663 225.993 175.082 225.838 189.34 228.468C191.3 228.829 193.237 229.301 195.101 230.2C146.455 230.2 97.8032 230.2 49.1569 230.2C49.0903 230 49.0237 229.801 48.9515 229.601Z" fill="#4BCC3C"/>
</svg>
