<svg width="182" height="20" viewBox="0 0 182 20" fill="none" xmlns="http://www.w3.org/2000/svg">
<path d="M14.4688 0.633506V3.16798C14.4688 3.33323 14.3585 3.44346 14.1934 3.44346H3.31182V8.62263H12.2926C12.4579 8.62263 12.5681 8.73269 12.5681 8.89795V11.4326C12.5681 11.5978 12.4579 11.7079 12.2926 11.7079H3.31182V19.3664C3.31182 19.5318 3.20175 19.6418 3.03634 19.6418H0.309015C0.143759 19.6418 0.0336914 19.5318 0.0336914 19.3664V0.633506C0.0336914 0.468252 0.143759 0.358032 0.309015 0.358032H14.1934C14.3585 0.358032 14.4688 0.468252 14.4688 0.633506Z" fill="#61778C"/>
<path d="M30.9008 11.4875C29.8954 8.7051 28.7797 5.92274 27.6362 3.38827H26.989C25.8458 5.92274 24.7162 8.7051 23.7106 11.4875H30.9008ZM36.6723 19.6418H33.6694C33.5042 19.6418 33.394 19.559 33.3527 19.3939C32.9531 17.8098 32.4713 16.1432 31.9202 14.4626H22.7051C22.1543 16.1432 21.6722 17.8098 21.2865 19.3939C21.2452 19.559 21.135 19.6418 20.9697 19.6418H18.0772C17.8844 19.6418 17.774 19.5318 17.8291 19.3387C19.5647 13.1957 22.2094 6.41851 24.8815 0.716139C25.0055 0.454457 25.1572 0.358032 25.4188 0.358032H29.3305C29.5922 0.358032 29.7438 0.454457 29.8679 0.716139C32.5676 6.40487 35.1708 13.1957 36.9201 19.3387C36.9754 19.5318 36.8651 19.6418 36.6723 19.6418Z" fill="#61778C"/>
<path d="M41.6028 10.1653C41.6028 4.18718 45.5421 0 51.1622 0H51.5751C55.1015 0 57.8287 1.79052 59.275 4.38003C59.3714 4.54543 59.3439 4.6831 59.1786 4.76588L56.7544 5.96406C56.589 6.04668 56.3822 6.04668 56.2722 5.84018C55.2529 4.07711 53.724 3.14046 51.4651 3.14046H51.0518C47.5119 3.14046 45.0738 5.9504 45.0738 10.0277C45.0738 14.1186 47.4706 16.8596 51.0518 16.8596H51.4651C53.7793 16.8596 55.1289 16.0743 56.1621 14.876C56.2999 14.7245 56.4514 14.697 56.6167 14.7796L59.1097 15.9917C59.2062 16.0468 59.2473 16.1156 59.2473 16.1846C59.2473 16.2533 59.2198 16.3086 59.165 16.3911C57.636 18.6226 54.8812 20 51.5203 20H51.1069C45.3908 20 41.6028 16.0743 41.6028 10.1653Z" fill="#61778C"/>
<path d="M81.2166 16.8319V19.3664C81.2166 19.5318 81.1063 19.6418 80.9411 19.6418H66.4782C66.3129 19.6418 66.2029 19.5318 66.2029 19.3664V0.633506C66.2029 0.468252 66.3129 0.358032 66.4782 0.358032H80.6931C80.8586 0.358032 80.9686 0.468252 80.9686 0.633506V3.16798C80.9686 3.33323 80.8586 3.44346 80.6931 3.44346H69.4809V8.45706H78.5994C78.7647 8.45706 78.8751 8.56744 78.8751 8.73269V11.2396C78.8751 11.4048 78.7647 11.515 78.5994 11.515H69.4809V16.5564H80.9411C81.1063 16.5564 81.2166 16.6666 81.2166 16.8319Z" fill="#61778C"/>
<path d="M102.759 14.0632C102.759 12.2726 101.574 11.4599 98.9709 11.4599H92.4831V16.639H98.9709C101.615 16.639 102.759 15.8676 102.759 14.0632ZM98.048 3.36083H92.4831V8.53984H98.048C100.541 8.53984 101.684 7.72706 101.684 5.95034C101.684 4.1733 100.541 3.36083 98.048 3.36083ZM106.12 14.3526C106.12 17.7272 103.53 19.6418 98.9569 19.6418H89.4804C89.3151 19.6418 89.2051 19.5318 89.2051 19.3664V0.633506C89.2051 0.468252 89.3151 0.358032 89.4804 0.358032H98.1169C102.566 0.358032 104.99 2.12111 104.99 5.34419C104.99 7.46538 103.916 8.85671 101.739 9.50394C104.797 10.1513 106.12 11.9834 106.12 14.3526Z" fill="#61778C"/>
<path d="M122.221 16.8596C126.174 16.8596 128.668 14.146 128.668 10.0001C128.668 5.85384 126.174 3.14046 122.221 3.14046H121.807C117.854 3.14046 115.361 5.85384 115.361 10.0001C115.361 14.146 117.854 16.8596 121.807 16.8596H122.221ZM111.89 10.0001C111.89 4.18717 115.747 0 121.807 0H122.221C128.281 0 132.138 4.18717 132.138 10.0001C132.138 15.8126 128.281 20 122.221 20H121.807C115.747 20 111.89 15.8126 111.89 10.0001Z" fill="#61778C"/>
<path d="M148.06 16.8596C152.014 16.8596 154.507 14.146 154.507 10.0001C154.507 5.85384 152.014 3.14046 148.06 3.14046H147.648C143.693 3.14046 141.202 5.85384 141.202 10.0001C141.202 14.146 143.693 16.8596 147.648 16.8596H148.06ZM137.729 10.0001C137.729 4.18717 141.586 0 147.648 0H148.06C154.121 0 157.978 4.18717 157.978 10.0001C157.978 15.8126 154.121 20 148.06 20H147.648C141.586 20 137.729 15.8126 137.729 10.0001Z" fill="#61778C"/>
<path d="M181.738 19.6418H178.183C177.95 19.6418 177.853 19.5866 177.702 19.4076C175.208 16.4737 172.261 13.5538 169.754 11.4048H168.156V19.3664C168.156 19.5318 168.046 19.6418 167.881 19.6418H165.153C164.988 19.6418 164.878 19.5318 164.878 19.3664V0.633506C164.878 0.468252 164.988 0.358032 165.153 0.358032H167.881C168.046 0.358032 168.156 0.468252 168.156 0.633506V8.23692H169.781C172.468 5.81252 174.947 3.19558 176.972 0.564528C177.108 0.385474 177.22 0.358032 177.385 0.358032H180.746C180.911 0.358032 180.995 0.440656 180.995 0.550875C180.995 0.605911 180.965 0.674743 180.897 0.757371C177.936 4.40755 175.002 7.39655 172.289 9.71057C175.704 12.603 178.942 15.8262 181.889 19.2973C182.04 19.4764 181.958 19.6418 181.738 19.6418Z" fill="#61778C"/>
</svg>
