<svg width="92" height="30" viewBox="0 0 92 30" fill="none" xmlns="http://www.w3.org/2000/svg">
<path d="M39.4329 15.7875C39.4329 20.1037 36.0563 23.2841 31.9126 23.2841C27.7687 23.2841 24.3921 20.1037 24.3921 15.7875C24.3921 11.441 27.7687 8.29089 31.9126 8.29089C36.0563 8.29089 39.4329 11.441 39.4329 15.7875ZM36.1407 15.7875C36.1407 13.0904 34.1838 11.2449 31.9126 11.2449C29.6411 11.2449 27.6843 13.0904 27.6843 15.7875C27.6843 18.4577 29.6411 20.3301 31.9126 20.3301C34.1838 20.3301 36.1407 18.4543 36.1407 15.7875Z" fill="#EA4335"/>
<path d="M55.6568 15.7875C55.6568 20.1037 52.2801 23.2841 48.1363 23.2841C43.9926 23.2841 40.616 20.1037 40.616 15.7875C40.616 11.4443 43.9926 8.29089 48.1363 8.29089C52.2801 8.29089 55.6568 11.441 55.6568 15.7875ZM52.3646 15.7875C52.3646 13.0904 50.4077 11.2449 48.1363 11.2449C45.865 11.2449 43.9082 13.0904 43.9082 15.7875C43.9082 18.4577 45.865 20.3301 48.1363 20.3301C50.4077 20.3301 52.3646 18.4543 52.3646 15.7875Z" fill="#FBBC05"/>
<path d="M71.2041 8.7438V22.2027C71.2041 27.7389 67.9391 30 64.0792 30C60.4459 30 58.259 27.5698 57.4344 25.5826L60.3005 24.3895C60.811 25.6095 62.0615 27.0494 64.076 27.0494C66.5466 27.0494 68.0778 25.5251 68.0778 22.6555V21.5773H67.9629C67.2259 22.4864 65.8065 23.2809 64.0151 23.2809C60.2668 23.2809 56.8328 20.0158 56.8328 15.8146C56.8328 11.5829 60.2668 8.29089 64.0151 8.29089C65.8031 8.29089 67.2227 9.08516 67.9629 9.96731H68.0778V8.74717H71.2041V8.7438ZM68.311 15.8146C68.311 13.1749 66.55 11.2449 64.3092 11.2449C62.0378 11.2449 60.1349 13.1749 60.1349 15.8146C60.1349 18.4272 62.0378 20.3301 64.3092 20.3301C66.55 20.3301 68.311 18.4272 68.311 15.8146Z" fill="#4285F4"/>
<path d="M76.3585 0.855103V22.8246H73.1477V0.855103H76.3585Z" fill="#34A853"/>
<path d="M88.8709 18.2549L91.4261 19.9583C90.6014 21.1785 88.6139 23.2808 85.18 23.2808C80.9213 23.2808 77.7407 19.9888 77.7407 15.7841C77.7407 11.326 80.9483 8.28748 84.8116 8.28748C88.7018 8.28748 90.6046 11.3835 91.2265 13.0566L91.5679 13.9083L81.5466 18.0588C82.3139 19.5629 83.5069 20.3301 85.18 20.3301C86.8564 20.3301 88.019 19.5054 88.8709 18.2549ZM81.0057 15.5577L87.7048 12.776C87.3364 11.8398 86.2278 11.1874 84.9231 11.1874C83.25 11.1874 80.9213 12.6645 81.0057 15.5577Z" fill="#EA4335"/>
<path d="M12.2382 13.8374V10.6569H22.956C23.0607 11.2112 23.1147 11.8669 23.1147 12.5767C23.1147 14.9629 22.4623 17.9136 20.3601 20.0159C18.3153 22.1452 15.7026 23.2808 12.2416 23.2808C5.82646 23.2808 0.432129 18.0555 0.432129 11.6404C0.432129 5.22535 5.82646 0 12.2416 0C15.7905 0 18.3186 1.39253 20.2181 3.20755L17.9739 5.4518C16.6118 4.1742 14.7663 3.18049 12.2382 3.18049C7.55361 3.18049 3.88979 6.95586 3.88979 11.6404C3.88979 16.325 7.55361 20.1003 12.2382 20.1003C15.2767 20.1003 17.0072 18.8802 18.1159 17.7716C19.0149 16.8725 19.6064 15.5882 19.8396 13.834L12.2382 13.8374Z" fill="#4285F4"/>
</svg>
