<svg xmlns="http://www.w3.org/2000/svg" xmlns:xlink="http://www.w3.org/1999/xlink" version="1.1" width="512pt" height="512pt" viewBox="0 0 512 512">
<defs>
<clipPath id="clip_0">
<path transform="matrix(1,0,0,-1,0,512)" d="M0 512H512V0H0Z"/>
</clipPath>
</defs>
<g id="layer_1" data-name="">
<g clip-path="url(#clip_0)">
<path transform="matrix(1,0,0,-1,115.2231,294.2344)" d="M0 0C-5.399 0-10.417 .885-15.05 2.65-19.685 4.416-23.7 6.934-27.1 10.2-30.5 13.466-33.15 17.301-35.05 21.7-36.95 26.1-37.9 30.934-37.9 36.2-37.9 41.466-36.95 46.3-35.05 50.7-33.15 55.1-30.484 58.933-27.05 62.2-23.617 65.466-19.6 67.983-15 69.75-10.399 71.516-5.367 72.4 .101 72.4 6.166 72.4 11.65 71.35 16.55 69.25 21.45 67.15 25.565 64.066 28.9 60L18.5 50.4C16.101 53.133 13.433 55.183 10.5 56.55 7.565 57.916 4.366 58.6 .9 58.6-2.367 58.6-5.367 58.066-8.1 57-10.834 55.933-13.2 54.4-15.2 52.4-17.2 50.4-18.75 48.033-19.85 45.3-20.95 42.566-21.5 39.533-21.5 36.2-21.5 32.865-20.95 29.833-19.85 27.1-18.75 24.365-17.2 22-15.2 20-13.2 18-10.834 16.466-8.1 15.4-5.367 14.333-2.367 13.801 .9 13.801 4.366 13.801 7.565 14.482 10.5 15.85 13.433 17.216 16.101 19.301 18.5 22.1L28.9 12.5C25.565 8.434 21.45 5.333 16.55 3.2 11.65 1.067 6.133 0 0 0" fill="#231f20"/>
<path transform="matrix(1,0,0,-1,187.4224,280.4336)" d="M0 0C3.133 0 6.016 .532 8.649 1.6 11.282 2.665 13.6 4.199 15.6 6.199 17.6 8.199 19.149 10.564 20.25 13.299 21.35 16.032 21.899 19.064 21.899 22.399 21.899 25.732 21.35 28.765 20.25 31.5 19.149 34.232 17.615 36.6 15.649 38.6 13.683 40.6 11.365 42.132 8.7 43.199 6.032 44.265 3.133 44.799 0 44.799-3.135 44.799-6.018 44.265-8.65 43.199-11.284 42.132-13.601 40.6-15.601 38.6-17.601 36.6-19.15 34.232-20.25 31.5-21.351 28.765-21.9 25.732-21.9 22.399-21.9 19.133-21.351 16.115-20.25 13.35-19.15 10.582-17.617 8.199-15.65 6.199-13.685 4.199-11.367 2.665-8.7 1.6-6.034 .532-3.135 0 0 0M.1-13.801C-5.435-13.801-10.55-12.9-15.25-11.101-19.95-9.301-24.018-6.768-27.45-3.5-30.885-.234-33.55 3.6-35.45 8-37.351 12.399-38.3 17.199-38.3 22.399-38.3 27.6-37.351 32.399-35.45 36.799-33.55 41.199-30.867 45.032-27.4 48.299-23.935 51.565-19.867 54.1-15.2 55.899-10.534 57.699-5.468 58.6 0 58.6 5.532 58.6 10.615 57.699 15.25 55.899 19.883 54.1 23.915 51.565 27.35 48.299 30.782 45.032 33.466 41.215 35.399 36.85 37.333 32.482 38.3 27.665 38.3 22.399 38.3 17.199 37.333 12.383 35.399 7.949 33.466 3.516 30.782-.318 27.35-3.551 23.915-6.785 19.883-9.301 15.25-11.101 10.615-12.9 5.565-13.801 .1-13.801" fill="#231f20"/>
<path transform="matrix(1,0,0,-1,0,512)" d="M313.621 260.766H347.321V248.16599H313.621ZM314.821 231.966H352.921V218.966H298.721V288.966H351.621V275.966H314.821Z" fill="#231f20"/>
<path transform="matrix(1,0,0,-1,399.3203,294.2344)" d="M0 0C-5.399 0-10.417 .885-15.05 2.65-19.685 4.416-23.7 6.934-27.1 10.2-30.5 13.466-33.149 17.301-35.05 21.7-36.95 26.1-37.899 30.934-37.899 36.2-37.899 41.466-36.95 46.3-35.05 50.7-33.149 55.1-30.484 58.933-27.05 62.2-23.617 65.466-19.6 67.983-15 69.75-10.399 71.516-5.367 72.4 .101 72.4 6.166 72.4 11.65 71.35 16.55 69.25 21.45 67.15 25.565 64.066 28.9 60L18.5 50.4C16.101 53.133 13.433 55.183 10.5 56.55 7.565 57.916 4.366 58.6 .9 58.6-2.367 58.6-5.367 58.066-8.1 57-10.834 55.933-13.2 54.4-15.2 52.4-17.2 50.4-18.75 48.033-19.85 45.3-20.95 42.566-21.5 39.533-21.5 36.2-21.5 32.865-20.95 29.833-19.85 27.1-18.75 24.365-17.2 22-15.2 20-13.2 18-10.834 16.466-8.1 15.4-5.367 14.333-2.367 13.801 .9 13.801 4.366 13.801 7.565 14.482 10.5 15.85 13.433 17.216 16.101 19.301 18.5 22.1L28.9 12.5C25.565 8.434 21.45 5.333 16.55 3.2 11.65 1.067 6.133 0 0 0" fill="#231f20"/>
<path transform="matrix(1,0,0,-1,487.0186,293.03419)" d="M0 0-24.9 30.5-14.3 42 18.899 0ZM-33.4 16-34.3 34.7-.8 70H17.2L-13 37.5-22 27.899ZM-47.9 70H-31.799002V0H-47.9Z" fill="#231f20"/>
<path transform="matrix(1,0,0,-1,30.7241,280.03419)" d="M0 0V11.045C-.432 11.248-.863 11.462-1.294 11.7-1.646 11.895-2.009 12.072-2.372 12.246-2.428 12.273-7.702 16.865-7.859 16.854L-6.677 20.12C-5.088 23.627-2.979 26.671 0 28.928V44H36.8V57H-16.1V-13H38.1V0Z" fill="#231f20"/>
<path transform="matrix(1,0,0,-1,26.2101,260.2706)" d="M0 0C1.753 3.869 4.233 7.092 8.124 9.033 9.995 9.966 11.984 10.476 14.074 10.62 20.118 11.036 25.635 9.213 30.982 6.666 31.737 6.306 32.475 5.912 33.443 5.421 31.844 3.447 30.423 1.543 28.848-.224 26.017-3.4 22.825-6.142 18.859-7.849 13.996-9.944 9.239-9.75 4.592-7.182 4.291-7.016 3.982-6.865 3.672-6.716 3.624-6.693-.874-2.777-1.008-2.786" fill="#231f20"/>
<path transform="matrix(1,0,0,-1,162.9696,258.7342)" d="M0 0C1.753 3.869 4.233 7.092 8.124 9.033 9.995 9.966 11.984 10.476 14.074 10.62 20.118 11.036 25.635 9.213 30.982 6.666 31.737 6.306 32.475 5.912 33.443 5.421 31.844 3.447 30.423 1.543 28.848-.224 26.017-3.4 22.825-6.142 18.859-7.849 13.996-9.944 9.239-9.75 4.592-7.182 4.291-7.016 3.982-6.865 3.672-6.716 3.624-6.693-.874-2.777-1.008-2.786" fill="#231f20"/>
<path transform="matrix(1,0,0,-1,235.5983,226.2013)" d="M0 0C-2.093-.063-3.336-1.248-3.431-3.424-3.432-5.342-1.91-6.907 .003-6.862 2.141-6.812 3.378-5.562 3.433-3.444 3.482-1.545 1.89 .057 0 0" fill="#231f20"/>
<path transform="matrix(1,0,0,-1,249.3806,226.2013)" d="M0 0C-2.093-.063-3.336-1.248-3.431-3.424-3.432-5.342-1.91-6.907 .003-6.862 2.141-6.812 3.378-5.562 3.433-3.444 3.482-1.545 1.89 .057 0 0" fill="#231f20"/>
<path transform="matrix(1,0,0,-1,283.4021,226.2013)" d="M0 0C-2.093-.063-3.336-1.248-3.431-3.424-3.432-5.342-1.91-6.907 .003-6.862 2.141-6.812 3.378-5.562 3.433-3.444 3.482-1.545 1.89 .057 0 0" fill="#231f20"/>
<path transform="matrix(1,0,0,-1,259.336,236.23169)" d="M0 0C-2.093-.063-3.336-1.248-3.431-3.424-3.432-5.342-1.91-6.907 .003-6.862 2.141-6.812 3.378-5.562 3.433-3.444 3.482-1.545 1.89 .057 0 0" fill="#231f20"/>
<path transform="matrix(1,0,0,-1,259.3185,271.40559)" d="M0 0C2.138 .05 3.375 1.3 3.43 3.418 3.479 5.317 1.887 6.919-.003 6.862-2.096 6.8-3.339 5.614-3.434 3.438-3.435 1.521-1.913-.045 0 0" fill="#231f20"/>
<path transform="matrix(1,0,0,-1,289.8436,231.18259)" d="M0 0C-.502 .401-1.013 .492-1.513 .104-1.867-.17-2.008-.562-1.889-1.009-1.742-1.554-1.35-1.805-.766-1.855-1.319-2.788-2.05-3.502-2.977-4.09-3.05-3.475-3.321-3.072-3.898-2.96-4.369-2.869-4.763-3.051-5.016-3.449-5.324-3.931-5.227-4.403-4.869-4.83-5.351-5.104-7.267-5.137-7.942-4.856-7.579-4.387-7.479-3.892-7.855-3.388-8.115-3.039-8.481-2.896-8.908-2.973-9.496-3.079-9.781-3.474-9.849-4.092-10.762-3.541-11.461-2.83-12.037-1.93-11.544-1.858-11.17-1.661-10.989-1.205-10.874-.914-10.883-.623-11.001-.338-11.284 .348-11.859 .466-12.844 .033-13.073 1.026-13.074 2.01-12.857 3.037-12.435 2.737-12.003 2.624-11.538 2.846-11.247 2.985-11.056 3.223-10.969 3.529-10.768 4.239-11.172 4.785-12.061 4.981-11.503 5.869-10.812 6.598-9.902 7.15-9.825 6.589-9.576 6.187-9.031 6.059-8.594 5.956-8.206 6.075-7.92 6.442-7.524 6.953-7.633 7.452-8 7.959-6.96 8.205-5.954 8.213-4.907 7.973-5.281 7.478-5.372 6.99-5.014 6.495-4.745 6.122-4.356 5.976-3.916 6.077-3.349 6.207-3.079 6.614-3.025 7.21-2.101 6.648-1.37 5.929-.801 5.007-1.401 4.928-1.82 4.66-1.927 4.055-2.005 3.612-1.788 3.16-1.409 2.949-.918 2.675-.464 2.767-.019 3.158 .241 2.098 .239 1.07 0 0M-14.015 0C-14.517 .401-15.028 .492-15.528 .104-15.882-.17-16.024-.562-15.904-1.009-15.758-1.554-15.365-1.805-14.781-1.855-15.334-2.788-16.065-3.502-16.992-4.09-17.065-3.475-17.336-3.072-17.913-2.96-18.384-2.869-18.778-3.051-19.032-3.449-19.339-3.931-19.242-4.403-18.885-4.83-19.366-5.104-21.282-5.137-21.957-4.856-21.595-4.387-21.494-3.892-21.87-3.388-22.13-3.039-22.497-2.896-22.923-2.973-23.511-3.079-23.796-3.474-23.865-4.092-24.777-3.541-25.477-2.83-26.052-1.93-25.559-1.858-25.185-1.661-25.004-1.205-24.889-.914-24.898-.623-25.016-.338-25.3 .348-25.874 .466-26.86 .033-27.088 1.026-27.089 2.01-26.872 3.037-26.451 2.737-26.018 2.624-25.553 2.846-25.262 2.985-25.072 3.223-24.985 3.529-24.784 4.239-25.187 4.785-26.077 4.981-25.518 5.869-24.827 6.598-23.918 7.15-23.84 6.589-23.591 6.187-23.047 6.059-22.609 5.956-22.221 6.075-21.936 6.442-21.539 6.953-21.648 7.452-22.016 7.959-20.975 8.205-19.969 8.213-18.922 7.973-19.297 7.478-19.387 6.99-19.029 6.495-18.76 6.122-18.371 5.976-17.931 6.077-17.364 6.207-17.094 6.614-17.041 7.21-16.116 6.648-15.385 5.929-14.816 5.007-15.416 4.928-15.835 4.66-15.942 4.055-16.02 3.612-15.804 3.16-15.424 2.949-14.933 2.675-14.479 2.767-14.035 3.158-13.774 2.098-13.776 1.07-14.015 0M-24.066-10.03C-24.568-9.63-25.079-9.539-25.579-9.927-25.933-10.201-26.074-10.593-25.955-11.04-25.809-11.585-25.416-11.835-24.832-11.885-25.385-12.818-26.116-13.532-27.043-14.12-27.116-13.505-27.387-13.102-27.964-12.991-28.435-12.899-28.829-13.081-29.082-13.479-29.39-13.962-29.293-14.434-28.936-14.86-29.417-15.134-31.333-15.168-32.008-14.886-31.646-14.417-31.545-13.923-31.921-13.419-32.181-13.07-32.547-12.926-32.974-13.003-33.562-13.109-33.847-13.504-33.915-14.123-34.828-13.571-35.527-12.86-36.103-11.96-35.61-11.888-35.236-11.692-35.055-11.235-34.94-10.945-34.949-10.653-35.067-10.368-35.351-9.683-35.925-9.564-36.911-9.997-37.139-9.005-37.14-8.02-36.923-6.993-36.501-7.293-36.069-7.407-35.604-7.184-35.313-7.045-35.122-6.808-35.035-6.501-34.834-5.791-35.238-5.246-36.127-5.049-35.569-4.162-34.878-3.433-33.968-2.88-33.891-3.441-33.642-3.843-33.098-3.971-32.66-4.074-32.272-3.955-31.987-3.588-31.59-3.078-31.699-2.578-32.067-2.072-31.026-1.825-30.02-1.817-28.973-2.058-29.347-2.552-29.438-3.041-29.08-3.536-28.811-3.908-28.422-4.054-27.982-3.953-27.415-3.823-27.145-3.416-27.092-2.82-26.167-3.382-25.436-4.101-24.867-5.024-25.467-5.102-25.886-5.371-25.993-5.975-26.071-6.418-25.854-6.87-25.475-7.082-24.984-7.355-24.53-7.263-24.086-6.872-23.825-7.932-23.827-8.961-24.066-10.03M-24.066-24.155C-24.568-23.755-25.079-23.664-25.579-24.052-25.933-24.326-26.074-24.718-25.955-25.165-25.809-25.71-25.416-25.96-24.832-26.01-25.385-26.943-26.116-27.657-27.043-28.245-27.116-27.63-27.387-27.227-27.964-27.116-28.435-27.024-28.829-27.206-29.082-27.604-29.39-28.087-29.293-28.559-28.936-28.985-29.417-29.259-31.333-29.293-32.008-29.011-31.646-28.542-31.545-28.048-31.921-27.544-32.181-27.195-32.547-27.051-32.974-27.128-33.562-27.234-33.847-27.629-33.915-28.248-34.828-27.696-35.527-26.985-36.103-26.085-35.61-26.013-35.236-25.817-35.055-25.36-34.94-25.07-34.949-24.778-35.067-24.493-35.351-23.808-35.925-23.689-36.911-24.122-37.139-23.13-37.14-22.145-36.923-21.118-36.501-21.418-36.069-21.532-35.604-21.309-35.313-21.17-35.122-20.933-35.035-20.626-34.834-19.916-35.238-19.371-36.127-19.174-35.569-18.287-34.878-17.558-33.968-17.005-33.891-17.566-33.642-17.968-33.098-18.096-32.66-18.199-32.272-18.081-31.987-17.713-31.59-17.203-31.699-16.703-32.067-16.197-31.026-15.95-30.02-15.942-28.973-16.183-29.347-16.677-29.438-17.166-29.08-17.661-28.811-18.033-28.422-18.179-27.982-18.078-27.415-17.948-27.145-17.541-27.092-16.945-26.167-17.507-25.436-18.226-24.867-19.149-25.467-19.227-25.886-19.496-25.993-20.1-26.071-20.543-25.854-20.995-25.475-21.207-24.984-21.48-24.53-21.388-24.086-20.997-23.825-22.057-23.827-23.086-24.066-24.155M-24.066-53.113C-24.568-52.712-25.079-52.622-25.579-53.01-25.933-53.284-26.074-53.676-25.955-54.122-25.809-54.667-25.416-54.918-24.832-54.968-25.385-55.901-26.116-56.615-27.043-57.203-27.116-56.588-27.387-56.185-27.964-56.073-28.435-55.982-28.829-56.164-29.082-56.562-29.39-57.045-29.293-57.517-28.936-57.943-29.417-58.217-31.333-58.25-32.008-57.969-31.646-57.5-31.545-57.006-31.921-56.502-32.181-56.153-32.547-56.009-32.974-56.086-33.562-56.192-33.847-56.587-33.915-57.205-34.828-56.654-35.527-55.943-36.103-55.043-35.61-54.971-35.236-54.774-35.055-54.318-34.94-54.028-34.949-53.736-35.067-53.451-35.351-52.766-35.925-52.647-36.911-53.08-37.139-52.087-37.14-51.103-36.923-50.076-36.501-50.376-36.069-50.49-35.604-50.267-35.313-50.128-35.122-49.891-35.035-49.584-34.834-48.874-35.238-48.328-36.127-48.132-35.569-47.245-34.878-46.516-33.968-45.963-33.891-46.524-33.642-46.926-33.098-47.054-32.66-47.157-32.272-47.038-31.987-46.671-31.59-46.16-31.699-45.661-32.067-45.155-31.026-44.908-30.02-44.9-28.973-45.14-29.347-45.635-29.438-46.123-29.08-46.619-28.811-46.991-28.422-47.137-27.982-47.036-27.415-46.906-27.145-46.499-27.092-45.903-26.167-46.465-25.436-47.184-24.867-48.107-25.467-48.185-25.886-48.453-25.993-49.058-26.071-49.501-25.854-49.953-25.475-50.164-24.984-50.438-24.53-50.346-24.086-49.955-23.825-51.015-23.827-52.044-24.066-53.113M-36.148-33.361C-35.59-32.473-34.898-31.744-33.989-31.192-33.911-31.753-33.663-32.155-33.118-32.283-32.681-32.386-32.292-32.267-32.007-31.9-31.61-31.389-31.719-30.89-32.087-30.384-31.046-30.137-30.041-30.129-28.994-30.369-29.368-30.864-29.458-31.352-29.1-31.848-28.831-32.22-28.443-32.366-28.002-32.265-27.435-32.135-27.165-31.728-27.112-31.132-26.187-31.694-25.457-32.413-24.887-33.335-25.487-33.414-25.907-33.682-26.013-34.287-26.091-34.73-25.875-35.182-25.496-35.393-25.004-35.667-24.551-35.575-24.106-35.184-23.845-36.244-23.847-37.273-24.087-38.342-24.588-37.941-25.099-37.851-25.6-38.238-25.953-38.513-26.095-38.905-25.975-39.351-25.829-39.896-25.436-40.147-24.852-40.197-25.406-41.13-26.136-41.844-27.063-42.432-27.136-41.817-27.408-41.414-27.984-41.302-28.456-41.211-28.849-41.393-29.103-41.791-29.41-42.273-29.314-42.745-28.956-43.172-29.437-43.446-31.353-43.479-32.029-43.198-31.666-42.729-31.565-42.234-31.941-41.73-32.202-41.381-32.568-41.238-32.995-41.315-33.582-41.421-33.867-41.816-33.936-42.434-34.848-41.883-35.548-41.172-36.123-40.272-35.631-40.2-35.257-40.003-35.076-39.547-34.961-39.256-34.97-38.965-35.088-38.68-35.371-37.995-35.946-37.876-36.931-38.309-37.16-37.316-37.161-36.332-36.943-35.305-36.522-35.605-36.09-35.718-35.624-35.496-35.333-35.357-35.143-35.119-35.056-34.813-34.855-34.103-35.258-33.557-36.148-33.361M-37.919-2.96C-38.391-2.869-38.784-3.051-39.038-3.449-39.345-3.931-39.249-4.403-38.891-4.83-39.372-5.104-41.288-5.137-41.964-4.856-41.601-4.387-41.5-3.892-41.876-3.388-42.137-3.039-42.503-2.896-42.929-2.973-43.517-3.079-43.802-3.474-43.871-4.092-44.783-3.541-45.483-2.83-46.058-1.93-45.566-1.858-45.191-1.661-45.011-1.205-44.896-.914-44.904-.623-45.022-.338-45.306 .348-45.881 .466-46.866 .033-47.094 1.026-47.096 2.01-46.878 3.037-46.457 2.737-46.025 2.624-45.559 2.846-45.268 2.985-45.078 3.223-44.991 3.529-44.79 4.239-45.193 4.785-46.083 4.981-45.525 5.869-44.833 6.598-43.924 7.15-43.846 6.589-43.598 6.187-43.053 6.059-42.616 5.956-42.227 6.075-41.942 6.442-41.545 6.953-41.654 7.452-42.022 7.959-40.981 8.205-39.976 8.213-38.929 7.973-39.303 7.478-39.393 6.99-39.035 6.495-38.766 6.122-38.378 5.976-37.937 6.077-37.37 6.207-37.1 6.614-37.047 7.21-36.122 6.648-35.392 5.929-34.822 5.007-35.422 4.928-35.842 4.66-35.948 4.055-36.026 3.612-35.81 3.16-35.431 2.949-34.939 2.675-34.485 2.767-34.041 3.158-33.78 2.098-33.782 1.07-34.021 0-34.523 .401-35.034 .492-35.534 .104-35.888-.17-36.03-.562-35.91-1.009-35.764-1.554-35.371-1.805-34.787-1.855-35.341-2.788-36.071-3.502-36.998-4.09-37.071-3.475-37.342-3.072-37.919-2.96M-47.804 0C-48.305 .401-48.817 .491-49.317 .104-49.67-.17-49.812-.562-49.692-1.009-49.546-1.554-49.154-1.805-48.569-1.855-49.123-2.788-49.854-3.502-50.78-4.09-50.854-3.475-51.125-3.072-51.702-2.96-52.173-2.869-52.566-3.051-52.82-3.449-53.127-3.931-53.031-4.403-52.673-4.83-53.155-5.104-55.071-5.137-55.746-4.856-55.383-4.387-55.283-3.892-55.659-3.388-55.919-3.039-56.285-2.896-56.712-2.973-57.299-3.079-57.585-3.474-57.653-4.092-58.565-3.541-59.265-2.83-59.841-1.93-59.348-1.858-58.974-1.661-58.793-1.205-58.678-.914-58.687-.623-58.805-.338-59.088 .347-59.663 .466-60.648 .033-60.877 1.026-60.878 2.01-60.66 3.037-60.239 2.737-59.807 2.624-59.341 2.846-59.05 2.985-58.86 3.223-58.773 3.529-58.572 4.239-58.976 4.785-59.865 4.981-59.307 5.869-58.616 6.598-57.706 7.15-57.629 6.589-57.38 6.187-56.835 6.059-56.398 5.956-56.01 6.075-55.724 6.442-55.328 6.953-55.436 7.452-55.804 7.958-54.764 8.205-53.758 8.213-52.711 7.973-53.085 7.478-53.176 6.99-52.818 6.495-52.548 6.122-52.16 5.976-51.719 6.077-51.153 6.207-50.883 6.614-50.829 7.21-49.904 6.648-49.174 5.929-48.604 5.007-49.205 4.928-49.624 4.66-49.73 4.055-49.808 3.612-49.592 3.16-49.213 2.949-48.722 2.675-48.268 2.767-47.823 3.158-47.563 2.098-47.564 1.07-47.804 0M-60.822 8.148V-5.052H-38.422V-61.852H-22.222V-5.052H.178V8.148Z" fill="#231f20"/>
<path transform="matrix(1,0,0,-1,259.3359,279.3145)" d="M0 0C-2.093-.063-3.336-1.248-3.431-3.424-3.432-5.342-1.91-6.907 .003-6.862 2.141-6.812 3.378-5.562 3.433-3.444 3.482-1.545 1.89 .057 0 0" fill="#231f20"/>
<path transform="matrix(1,0,0,-1,259.3359,250.35669)" d="M0 0C-2.093-.063-3.336-1.248-3.431-3.424-3.432-5.342-1.91-6.907 .003-6.862 2.141-6.812 3.378-5.562 3.433-3.444 3.482-1.545 1.89 .057 0 0" fill="#231f20"/>
<path transform="matrix(1,0,0,-1,269.3868,226.2013)" d="M0 0C-2.093-.063-3.336-1.248-3.431-3.424-3.432-5.342-1.91-6.907 .003-6.862 2.141-6.812 3.378-5.562 3.433-3.444 3.482-1.545 1.89 .057 0 0" fill="#231f20"/>
</g>
</g>
</svg>
