<?xml version="1.0" encoding="utf-8"?>
<!-- Generator: Adobe Illustrator 26.0.1, SVG Export Plug-In . SVG Version: 6.00 Build 0)  -->
<svg version="1.1" id="Layer_1" xmlns="http://www.w3.org/2000/svg" xmlns:xlink="http://www.w3.org/1999/xlink" x="0px" y="0px"
	 viewBox="0 0 512 512" style="enable-background:new 0 0 512 512;" xml:space="preserve">
<style type="text/css">
	.st0{fill:none;}
	.st1{font-family:'Mogra-Regular';}
	.st2{font-size:93.7975px;}
</style>
<g>
	<path d="M90.24,146.23c10.24,4.68,18.41,8.55,26.7,12.16c13.3,5.78,21.94,16.31,29.92,27.9c14.57,21.15,29.65,41.96,44.52,62.91
		c0.63-0.34,1.25-0.68,1.88-1.02c-1.59-3.52-2.89-7.2-4.8-10.53c-9.37-16.32-18.91-32.53-28.37-48.79
		c-8.91-15.31-12.57-32.06-13.68-50.47c3.33,0.59,6.35,1.13,10.6,1.89c-0.86-2.54-1.36-4.44-2.14-6.22
		c-5.45-12.46-5.67-24.69,1.39-36.69c2.28-3.88,4.45-7.55,2.9-12.69c-0.84-2.8,0.66-6.32,1.16-9.51c1.33-8.46,2.68-16.92,4.01-25.32
		c6.06,3.92,13.29,7.94,19.76,12.94c9.33,7.22,18.34,14.9,27.01,22.91c3.05,2.81,4.68,7.15,7.41,11.5
		c8.64-6.18,14.43-14.28,18.32-23.76c4.27-10.4,8.23-20.92,12.28-31.42c4.79-12.43,9.51-24.88,14.06-36.79
		c15.05,16.49,31.17,34.15,48.09,52.69c2.26-4.92,3.76-8.18,5.27-11.46c0.65,0.3,1.29,0.41,1.34,0.65
		c4.44,19.1,16.55,36.1,16.38,56.32c-0.1,10.87-0.24,22.59-4.17,32.39c-9.98,24.9-25.56,46.81-41.88,69.89
		c1.32-9.46,2.66-17.29,3.47-25.17c2.57-25.04-0.8-49.1-11.59-72.1c-5.48-11.68-9.99-23.81-15.64-37.45c0,4.29-0.54,7.15,0.09,9.72
		c4.07,16.57,7.74,33.28,12.78,49.56c9.97,32.15,8.04,64.39,2.28,97.08c-9.7-24.69-28.73-41.26-47.78-57.83
		c-0.52,0.34-1.04,0.68-1.56,1.01c1.13,1.81,2.08,3.76,3.42,5.39c23.63,28.55,27.88,60.49,16.43,95.04
		c-4.12,12.42-8.83,24.64-13.78,38.35c-7.05-11.87-12.19-23.45-23.17-30.16c-0.49,0.36-0.97,0.72-1.46,1.08
		c3.63,4.87,7.26,9.74,11.61,15.57c-7.81-3.34-14.38-6.79-21.35-9c-16.26-5.17-33.01-8.92-48.97-14.85
		c-12.04-4.48-23.97-10.26-34.48-17.58c-16.99-11.85-26.47-29.46-27.97-49.94C89.14,185.34,90.24,166.09,90.24,146.23z"/>
	<path d="M244.4,320.72c8.65-5.33,16.92-10.34,25.12-15.48c13.55-8.5,26.8-17.51,40.64-25.49c9.48-5.47,19.59-9.97,29.74-14.11
		c6.22-2.53,10.24-5.93,12.94-12.35c10.67-25.37,31.02-38.38,57.41-43.06c1.06-0.19,2.15-0.18,3.23-0.18c0.39,0,0.79,0.26,1.94,0.67
		c-1.5,1.77-3.12,3.15-4.08,4.89c-4.65,8.47-9.66,16.8-13.54,25.63c-5.21,11.84-9.12,24.24-14.28,36.1
		c-10.68,24.58-28.82,41.66-53.66,51.69c-1.37,0.55-2.66,1.33-4.35,2.19c1.46,1.94,2.71,3.59,3.92,5.19
		C310.9,357.85,269.06,350.48,244.4,320.72z"/>
	<path d="M368.55,125.01c6.39,11.62,12.81,23.19,19.13,34.82c8.31,15.27,5.95,30.3-5.31,42.05c-14,14.59-29.42,28.1-45.59,40.25
		c-18.13,13.61-38.11,24.72-56.67,37.79c-12.13,8.54-23.16,18.64-34.83,28.16c0.76-2.16,1.26-4.65,2.43-6.77
		c11.92-21.81,22.91-44.19,39.55-63.07c13.74-15.59,24.3-33.16,31.09-52.81c4.71-13.61,12.11-25.28,22.69-35
		C350.56,141.68,360.03,132.88,368.55,125.01z"/>
	<path d="M233.34,312.54c-26.33,23.63-54.87,29.52-86.54,21.16c-16.97-4.48-31.8-13.06-44.85-24.99
		c-9.66-8.83-20.07-16.83-30.67-25.64c21.64-7,42.53-12.06,62.78,2.98c2.18,1.62,6.07,1.7,9.04,1.38
		c25.38-2.78,50.15-1.48,72.91,11.49C222.03,302.34,227.05,307.52,233.34,312.54z"/>
	<path d="M109.03,418.92c9.52-1.53,18.99-3.55,28.57-4.46c9.19-0.88,18.57,0,27.71-1.13c4.33-0.54,8.09-0.84,12.45,0
		c2.4,0.46,5.56-3.04,8.83-5.02c0.54,0.49,1.64,1.2,2.36,2.19c3.52,4.83,6.64,3.75,9.74-0.44c1.97-2.65,4.06-5.22,6.3-8.08
		c1.22,1.29,2.01,1.74,2,2.17c-0.21,8.35,4.72,8.8,11.33,8.16c6.43-0.62,12.97-0.16,19.45-0.09c8.26,0.09,9.95-1.1,10.93-9.28
		c2.4-19.96,1.61-39.72-4.54-59.05c-0.31-0.99-0.49-2.02,0.54-3.7c2.5,4.27,5.86,8.27,7.35,12.87c4.66,14.34,9.02,28.81,12.75,43.42
		c3.91,15.37,3.77,15.86,19.54,15.89c25.97,0.05,51.95-0.23,77.64,4.51c3.53,0.65,7.02,1.5,10.38,3.12c-87.65,0-175.31,0-262.96,0
		C109.28,419.64,109.16,419.28,109.03,418.92z"/>
</g>
<rect x="60.49" y="424" class="st0" width="365.3" height="79.21"/>
<text transform="matrix(1 0 0 1 60.4922 496.6921)" class="st1 st2">ECOSPOT</text>
</svg>
