<svg width="26" height="30" viewBox="0 0 26 30" fill="none" xmlns="http://www.w3.org/2000/svg">
<path d="M21.4205 28.7919C19.7932 30.371 17.9979 30.125 16.2866 29.3803C14.4672 28.6208 12.8039 28.5728 10.8825 29.3803C8.48964 30.4132 7.21968 30.1129 5.77858 28.7919C-2.35762 20.4155 -1.1567 7.65583 8.09034 7.17546C10.333 7.29556 11.9032 8.41541 13.2242 8.50848C15.1877 8.10917 17.0672 6.9653 19.1688 7.11542C21.6936 7.31957 23.5821 8.31633 24.8431 10.1087C19.6491 13.2311 20.8801 20.0763 25.6508 21.9978C24.6959 24.5047 23.471 26.9816 21.4176 28.813L21.4205 28.7919ZM13.0441 7.08539C12.8009 3.36256 15.8182 0.300229 19.2889 0C19.7662 4.29327 15.3859 7.50571 13.0441 7.08539Z" fill="black"/>
</svg>
