<svg width="142" height="30" viewBox="0 0 142 30" fill="none" xmlns="http://www.w3.org/2000/svg">
<path d="M50.3604 17.2791L49.5231 19.6512H49.4533C49.3137 19.1163 49.0581 18.3023 48.6394 17.3256L44.151 6.04652H39.7556V24.0233H42.6627V12.9303C42.6627 12.2326 42.6627 11.4419 42.6394 10.4651C42.6162 9.97677 42.5696 9.60467 42.5464 9.3256H42.6162C42.7556 10.0233 42.9185 10.5349 43.0348 10.8605L48.4302 23.9768H50.4767L55.8254 10.7442C55.9417 10.4419 56.0581 9.83723 56.1744 9.3256H56.2442C56.1744 10.6512 56.1277 11.8372 56.1046 12.5582V23.9535H59.1975V6.00002H54.965L50.3604 17.2791ZM62.1277 11.0698H65.151V23.9535H62.1277V11.0698ZM63.6627 5.62792C63.151 5.62792 62.7325 5.81398 62.3835 6.13956C62.0348 6.46513 61.8487 6.88373 61.8487 7.39538C61.8487 7.88373 62.0348 8.30233 62.3835 8.62792C62.7325 8.9535 63.151 9.11629 63.6627 9.11629C64.1744 9.11629 64.6162 8.93025 64.9417 8.62792C65.2906 8.30233 65.4767 7.88373 65.4767 7.39538C65.4767 6.907 65.2906 6.4884 64.9417 6.13956C64.6394 5.81398 64.1975 5.62792 63.6627 5.62792ZM75.8721 10.9535C75.3137 10.8372 74.7325 10.7675 74.1744 10.7675C72.8023 10.7675 71.5464 11.0698 70.4998 11.6744C69.4533 12.2791 68.6162 13.1163 68.0812 14.1628C67.5231 15.2326 67.2442 16.4651 67.2442 17.8838C67.2442 19.1163 67.5231 20.2093 68.0581 21.2093C68.5929 22.186 69.3371 22.9768 70.3371 23.5116C71.2906 24.0466 72.4069 24.3256 73.6627 24.3256C75.1046 24.3256 76.3371 24.0233 77.3137 23.4652L77.3371 23.4418V20.6512L77.2208 20.7442C76.7789 21.0698 76.2673 21.3489 75.7556 21.5116C75.2208 21.6977 74.7325 21.7908 74.3137 21.7908C73.1046 21.7908 72.151 21.4418 71.4767 20.6744C70.7789 19.9303 70.4302 18.907 70.4302 17.6279C70.4302 16.3024 70.7789 15.2558 71.4998 14.4884C72.2208 13.7209 73.1744 13.3256 74.3371 13.3256C75.3137 13.3256 76.3137 13.6512 77.2208 14.3024L77.3371 14.3954V11.4419L77.3137 11.4186C76.9185 11.2558 76.4767 11.0698 75.8721 10.9535ZM85.8487 10.8605C85.1046 10.8605 84.4069 11.093 83.8023 11.5814C83.2906 12 82.9417 12.6047 82.6394 13.3256H82.6162V11.0698H79.5929V23.9535H82.6162V17.3721C82.6162 16.2558 82.8487 15.3256 83.3604 14.6512C83.8721 13.9535 84.5231 13.6047 85.3137 13.6047C85.5929 13.6047 85.8721 13.6744 86.2208 13.721C86.5464 13.814 86.7789 13.907 86.9417 14.0233L87.0581 14.1163V11.093L86.9883 11.0698C86.7789 10.9303 86.3604 10.8605 85.8487 10.8605ZM94.0812 10.7907C91.965 10.7907 90.2673 11.4186 89.0812 12.6512C87.8721 13.8838 87.2906 15.5814 87.2906 17.7209C87.2906 19.721 87.8952 21.3489 89.0581 22.535C90.2208 23.6977 91.8023 24.3022 93.7789 24.3022C95.8487 24.3022 97.4998 23.6743 98.6858 22.4187C99.8952 21.1629 100.477 19.4884 100.477 17.4186C100.477 15.3721 99.9185 13.7442 98.7789 12.5582C97.686 11.3721 96.0812 10.7907 94.0812 10.7907ZM96.4998 20.6977C95.9417 21.4187 95.0581 21.7675 93.965 21.7675C92.8721 21.7675 91.9883 21.4187 91.3604 20.6512C90.7325 19.9303 90.4302 18.8838 90.4302 17.5582C90.4302 16.1861 90.7556 15.1396 91.3604 14.3954C91.9883 13.6512 92.8487 13.2791 93.9417 13.2791C95.0115 13.2791 95.8487 13.6279 96.4533 14.3489C97.0581 15.0698 97.3835 16.1163 97.3835 17.4884C97.3371 18.8837 97.0812 19.9768 96.4998 20.6977ZM107.221 16.4186C106.267 16.0233 105.663 15.721 105.384 15.4651C105.151 15.2326 105.035 14.907 105.035 14.4884C105.035 14.1396 105.174 13.7907 105.523 13.5582C105.872 13.3256 106.267 13.2093 106.849 13.2093C107.36 13.2093 107.895 13.3023 108.407 13.4419C108.919 13.5814 109.384 13.7907 109.756 14.0698L109.872 14.1628V11.3256L109.802 11.3023C109.453 11.1628 108.988 11.0233 108.43 10.907C107.872 10.814 107.36 10.7675 106.942 10.7675C105.5 10.7675 104.314 11.1163 103.384 11.8837C102.453 12.6047 102.011 13.5814 102.011 14.721C102.011 15.3256 102.105 15.8605 102.314 16.3023C102.523 16.7442 102.825 17.1628 103.244 17.5116C103.663 17.8372 104.267 18.2093 105.105 18.5582C105.802 18.8605 106.337 19.093 106.663 19.2791C106.988 19.4651 107.197 19.6744 107.36 19.8372C107.477 20.0233 107.546 20.2558 107.546 20.5582C107.546 21.4187 106.895 21.8372 105.57 21.8372C105.058 21.8372 104.523 21.7441 103.895 21.535C103.267 21.3256 102.686 21.0233 102.197 20.6744L102.081 20.5814V23.535L102.151 23.5581C102.593 23.7675 103.128 23.907 103.779 24.0698C104.43 24.186 105.011 24.2791 105.523 24.2791C107.081 24.2791 108.36 23.9302 109.267 23.1629C110.197 22.4187 110.686 21.4652 110.686 20.2326C110.686 19.3721 110.453 18.6047 109.942 18.0233C109.267 17.4651 108.43 16.8837 107.221 16.4186ZM118.663 10.7907C116.546 10.7907 114.849 11.4186 113.663 12.6512C112.477 13.8838 111.872 15.5814 111.872 17.7209C111.872 19.721 112.477 21.3489 113.639 22.535C114.802 23.6977 116.384 24.3022 118.36 24.3022C120.43 24.3022 122.081 23.6743 123.267 22.4187C124.477 21.1629 125.058 19.4884 125.058 17.4186C125.058 15.3721 124.5 13.7442 123.36 12.5582C122.267 11.3721 120.663 10.7907 118.663 10.7907ZM121.058 20.6977C120.5 21.4187 119.616 21.7675 118.523 21.7675C117.407 21.7675 116.546 21.4187 115.919 20.6512C115.291 19.9303 114.988 18.8838 114.988 17.5582C114.988 16.1861 115.314 15.1396 115.919 14.3954C116.546 13.6512 117.407 13.2791 118.5 13.2791C119.546 13.2791 120.407 13.6279 121.011 14.3489C121.616 15.0698 121.942 16.1163 121.942 17.4884C121.942 18.8837 121.639 19.9768 121.058 20.6977ZM141.221 13.5582V11.0698H138.174V7.25583L138.081 7.27908L135.197 8.13956L135.128 8.16281V11.0698H130.57V9.44188C130.57 8.69769 130.756 8.11629 131.081 7.74421C131.407 7.37211 131.895 7.18606 132.5 7.18606C132.919 7.18606 133.36 7.27908 133.849 7.4884L133.965 7.55817V4.93025L133.895 4.907C133.477 4.76746 132.919 4.67444 132.197 4.67444C131.291 4.67444 130.5 4.88375 129.779 5.23258C129.058 5.62792 128.523 6.16281 128.128 6.88375C127.732 7.58142 127.523 8.3721 127.523 9.27908V11.0698H125.407V13.5349H127.523V23.9535H130.57V13.5582H135.128V20.1861C135.128 22.907 136.407 24.2791 138.965 24.2791C139.384 24.2791 139.825 24.2093 140.244 24.1395C140.686 24.0466 141.011 23.9302 141.197 23.8372L141.221 23.8139V21.3256L141.105 21.4187C140.919 21.535 140.756 21.6279 140.477 21.6977C140.244 21.7675 140.035 21.7908 139.872 21.7908C139.267 21.7908 138.849 21.6512 138.546 21.3022C138.267 20.9768 138.128 20.4419 138.128 19.6512V13.5582H141.221Z" fill="#737373"/>
<path d="M0.779053 0H15.0349V14.2558H0.779053V0Z" fill="#F25022"/>
<path d="M16.5232 0H30.779V14.2558H16.5232V0Z" fill="#7FBA00"/>
<path d="M0.779053 15.7443H15.0349V30H0.779053V15.7443Z" fill="#00A4EF"/>
<path d="M16.5232 15.7443H30.779V30H16.5232V15.7443Z" fill="#FFB900"/>
</svg>
